<svg width="120" height="130" viewBox="0 0 200 130" fill="none" xmlns="http://www.w3.org/2000/svg">
<rect width="130" height="130" fill="#22b3c1" rx="70" ry="70"/>

<path fill-rule="evenodd" clip-rule="evenodd" d="M79.9577 117.483C79.1122 119.462 78.5598 122.148 79.8117 123.828C82.5674 127.528 99.9076 118.035 102.332 114.769C92.62 119.246 92.1963 115.247 95.534 111.001C95.675 110.821 95.8247 110.643 95.982 110.465C94.7917 111.052 93.5791 111.64 92.3358 112.239C88.0361 114.096 83.968 115.874 79.9577 117.483Z" fill="#18354A"/>
<path fill-rule="evenodd" clip-rule="evenodd" d="M40.7457 69.5678C44.6232 63.5415 52.4942 54.2355 59.7338 47.5251C51.6039 51.1403 44.6201 52.6917 36.8525 54.354C33.4573 55.0809 29.9154 55.8966 26.3635 56.2939C24.4548 58.6907 22.8831 60.8804 21.1447 63.3554C19.0577 66.328 17.4041 69.2791 15.5571 72.3185C16.4503 72.4179 17.3467 72.4784 18.2377 72.5104C23.2955 72.6913 28.2315 72.2497 33.048 71.3161C35.6286 70.7927 38.1947 70.2085 40.7457 69.5678Z" fill="#18354A"/>
<path fill-rule="evenodd" clip-rule="evenodd" d="M72.8759 97.9733C76.0339 92.7671 83.4141 84.1401 90.5401 77.5664C89.3694 78.1213 88.2561 78.6466 87.2192 79.1387C77.0151 84.069 65.0601 88.6059 53.4048 91.952C49.9612 96.5657 47.7346 100.722 45.8867 105.698C51.885 104.661 58.0093 102.986 63.4999 101.207C66.7265 100.154 69.8123 99.1036 72.8759 97.9733Z" fill="#18354A"/>
<path fill-rule="evenodd" clip-rule="evenodd" d="M43.5254 123.499C46.2736 125.961 49.0102 127.528 52.6974 128.303C58.6901 129.563 65.0904 129.57 70.731 128.773C66.4898 129.182 61.5936 125.598 62.2841 121.562C61.5725 121.723 60.8556 121.875 60.1322 122.019C54.884 123.059 49.0682 123.668 43.5254 123.499Z" fill="#18354A"/>
<path fill-rule="evenodd" clip-rule="evenodd" d="M23.307 107.714C22.0195 105.278 23.3715 97.9856 25.4297 95.2883C24.4498 95.321 23.4705 95.3287 22.497 95.3082C18.2564 95.2189 13.336 94.573 8.91261 92.458C8.66896 94.2551 9.21542 97.8901 9.98916 99.7228C10.9697 100.947 12.3415 102.789 15.9982 104.913C18.2674 106.23 20.7386 107.127 23.307 107.714Z" fill="#18354A"/>
<path fill-rule="evenodd" clip-rule="evenodd" d="M81.9823 9.03223C79.729 9.30867 71.0063 15.0436 68.3036 17.0006C64.1121 20.0347 58.6296 24.0687 54.7373 27.7476C62.6418 23.6404 78.9728 13.6326 81.9823 9.03223Z" fill="#18354A"/>
<path fill-rule="evenodd" clip-rule="evenodd" d="M115.282 34.9297C110.737 35.7937 104.631 40.394 102.293 42.0634C99.6697 43.9366 92.2966 49.4055 90.0391 51.7075C98.8597 46.4383 111.923 37.8578 115.282 34.9297Z" fill="#18354A"/>
<path fill-rule="evenodd" clip-rule="evenodd" d="M124.726 71.5356L124.695 70.8604C121.973 72.6204 120.21 73.905 117.5 75.9245C116.397 76.747 114.734 77.8961 113.175 79.0665C117.35 76.5209 121.338 73.9478 124.726 71.5356Z" fill="#18354A"/>
<path fill-rule="evenodd" clip-rule="evenodd" d="M8.91221 92.4576C18.2401 96.9175 30.7794 95.3577 40.7012 93.1998C55.7499 89.929 72.6044 84.0185 86.3036 77.3996C97.0114 72.3177 115.789 63.7343 123.405 54.8025C121.999 47.3742 119.288 41.217 115.282 34.9297C110.986 38.6737 90.8237 51.6607 83.9536 55.1482C67.8453 63.3238 50.7869 69.7763 33.048 73.3739C28.2315 74.3075 23.2955 74.7491 18.2377 74.5682C14.5007 74.4341 10.667 73.7991 7.38457 71.8919C3.66694 69.7311 2.42165 66.2045 2.53238 58.5758C-0.0284848 66.6472 0.553786 87.2136 8.91221 92.4576Z" fill="#18354A"/>
<path fill-rule="evenodd" clip-rule="evenodd" d="M60.1328 122.019C71.1458 119.837 80.7067 115.569 91.8135 110.771C98.5758 107.514 104.431 104.572 110.72 100.448C112.776 99.0992 117.487 95.9685 119.023 93.7474C121.729 88.4529 124.74 77.1617 124.727 71.5356C110.994 81.3145 87.3983 93.7298 81.4407 96.3088C75.3724 98.9358 69.6411 100.969 63.3796 103.013C56.0713 105.381 47.6403 107.564 39.8781 108.304C32.061 109.049 23.054 109.008 15.9983 104.913C12.3415 102.789 10.9698 100.947 9.98926 99.7231C11.7575 104.297 18.4297 111.964 23.3709 115.745C26.4196 118.077 29.896 120.684 33.6096 121.935C35.7364 122.652 37.5599 123.014 39.3487 123.212C46.0628 123.952 53.5451 123.325 60.1328 122.019Z" fill="#18354A"/>
<path fill-rule="evenodd" clip-rule="evenodd" d="M35.8843 52.417C43.712 50.7418 50.7438 49.1797 58.9547 45.5042C67.6365 41.4632 91.5637 29.7819 99.6223 18.069C93.4884 13.4534 87.7933 11.1948 81.9828 9.03223C78.6283 14.1598 58.7221 26.0063 52.3833 28.9115C44.5269 32.5132 36.2323 35.4021 29.0476 36.2173C12.4614 38.3289 18.5987 23.101 30.4967 17.9336C24.61 19.244 16.6956 23.7711 11.8574 30.3208C5.53093 38.8848 3.93126 50.0572 13.6205 53.4052C20.8345 55.898 28.6886 53.9575 35.8843 52.417Z" fill="#18354A"/>
<path fill-rule="evenodd" clip-rule="evenodd" d="M28.7289 11.6528C28.0068 11.3721 27.4903 10.9744 27.2467 10.4182L27.0566 9.98697L27.5176 9.67263C28.3925 9.07125 29.2156 8.97662 30.4157 8.83792L51.8376 6.34433C52.7326 6.23876 53.7031 6.09021 54.6212 5.87043C55.499 5.66038 56.3148 5.38689 56.9392 5.02681L63.7681 1.08598C64.7693 0.507803 65.8878 0.158588 67.0868 0.0430326C68.2565 -0.0701085 69.4996 0.0394111 70.7806 0.376822L71.259 0.50331L71.1987 0.95983C71.1232 1.53197 70.8904 2.24268 70.4534 2.92146C70.0952 3.47891 69.5978 4.01806 68.9373 4.44722L60.9743 9.63279C59.401 10.6576 59.1997 11.2092 58.8339 12.2126C58.7331 12.4895 58.6223 12.7944 58.5014 13.0883C58.1989 13.8239 57.8591 14.6319 57.5265 15.4224C56.4232 18.0441 55.3805 20.5225 54.4451 23.4848L54.2375 24.1428L53.5341 23.9933C53.4911 23.9841 53.4094 23.9749 53.3242 23.9643C52.5344 23.8718 51.4234 23.7415 51.2256 21.6561L50.8261 17.4568C50.8193 17.3857 50.8156 17.2627 50.8109 17.1342L50.8112 17.1314C50.8034 16.8805 50.7931 16.5809 50.7043 16.3922C50.6321 16.2374 50.365 16.1987 49.57 16.5592C47.7331 17.3914 46.3827 18.0098 44.9848 18.649C42.5565 19.6983 34.5482 21.451 29.077 21.3251C29.6634 21.1201 30.2251 20.9119 30.755 20.7034L28.3915 19.6705L29.6547 19.0837L32.1227 18.0085L28.4993 16.4919C27.9917 16.2394 28.3204 15.8934 28.755 15.7479L32.9742 14.2409C33.1302 14.1854 33.3109 14.1708 33.4646 14.1875L41.1405 14.8306L44.4989 13.1176C44.3922 13.0562 43.8628 12.7831 43.6668 12.7455C42.5281 12.5275 32.4771 12.2591 31.1056 12.1648C30.179 12.0612 29.3684 11.9013 28.7289 11.6528Z" fill="#18354A"/>
</svg>
